<svg width="24" height="24" viewBox="0 0 24 24" fill="none" xmlns="http://www.w3.org/2000/svg">
<path d="M17.9565 5.88159C17.7734 5.65851 17.4766 5.65851 17.2935 5.88159L16.356 7.02445C16.173 7.24759 16.173 7.60942 16.356 7.83262C16.5391 8.05582 16.8359 8.05577 17.019 7.83262L17.9565 6.68977C18.1395 6.46662 18.1395 6.10479 17.9565 5.88159Z" fill="#F66141"/>
<path d="M6.70646 5.88159C6.52341 5.65851 6.2266 5.65851 6.0435 5.88159L5.106 7.02445C4.92296 7.24759 4.92296 7.60942 5.106 7.83262C5.28915 8.05582 5.58591 8.05577 5.76896 7.83262L6.70646 6.68977C6.8895 6.46662 6.8895 6.10479 6.70646 5.88159Z" fill="#F66141"/>
<path d="M15.6127 3.59589C15.4296 3.3728 15.1328 3.3728 14.9497 3.59589L14.0122 4.73874C13.8292 4.96189 13.8292 5.32372 14.0122 5.54692C14.1954 5.77012 14.4921 5.77006 14.6752 5.54692L15.6127 4.40406C15.7957 4.18092 15.7957 3.81909 15.6127 3.59589Z" fill="#F66141"/>
<path d="M9.98771 3.59589C9.80466 3.3728 9.50785 3.3728 9.32475 3.59589L8.38725 4.73874C8.20421 4.96189 8.20421 5.32372 8.38725 5.54692C8.5704 5.77012 8.86716 5.77006 9.05021 5.54692L9.98771 4.40406C10.1708 4.18092 10.1708 3.81909 9.98771 3.59589Z" fill="#F66141"/>
<path d="M12.3314 5.88159C12.1484 5.65851 11.8516 5.65851 11.6685 5.88159L10.731 7.02445C10.5479 7.24759 10.5479 7.60942 10.731 7.83262C10.9141 8.05582 11.2109 8.05577 11.3939 7.83262L12.3314 6.68977C12.5145 6.46662 12.5145 6.10479 12.3314 5.88159Z" fill="#F66141"/>
<path d="M24 17.7143C24 16.769 23.3692 16 22.5938 16H22.125V14.1583C22.1443 14.1378 22.164 14.1182 22.183 14.0971C22.4872 13.759 23.1228 13.5429 23.5372 13.5365C23.796 13.5325 24.0032 13.2734 24 12.9579C23.9967 12.6448 23.7875 12.3937 23.5313 12.3937C23.5294 12.3937 23.5273 12.3937 23.5253 12.3937C23.1231 12.3999 22.5887 12.5301 22.125 12.7973V11.2994C22.6957 11.0147 23.0752 10.2983 22.9937 9.50314C22.4408 4.08549 18.6415 0 14.1562 0H9.84375C5.35847 0 1.5592 4.08549 1.00627 9.50291C0.925031 10.2958 1.30191 11.0136 1.875 11.2995V12.7721C1.40958 12.5151 0.873891 12.3865 0.462609 12.3937C0.203766 12.3978 -0.00332812 12.657 4.6875e-05 12.9726C0.00342187 13.2857 0.212625 13.5365 0.468656 13.5365C0.470719 13.5365 0.472828 13.5365 0.474937 13.5365C0.894094 13.5286 1.54472 13.7421 1.86206 14.095C1.86628 14.0997 1.87078 14.1042 1.87505 14.1089V16H1.40625C0.629344 16 0 16.7671 0 17.7143C0 18.5637 0.509531 19.2705 1.17553 19.4051C1.06598 19.7576 1.05811 20.1427 1.15969 20.5087C1.74066 22.5969 3.34673 24 5.15625 24H18.8438C20.6533 24 22.2593 22.5969 22.8405 20.5083C22.9419 20.1427 22.9341 19.7578 22.8246 19.4053C23.478 19.2743 24 18.5811 24 17.7143ZM1.93655 9.64423C2.43127 4.79766 5.83059 1.14286 9.84375 1.14286H14.1562C18.1694 1.14286 21.5687 4.79766 22.0635 9.64451C22.0973 9.97474 21.8859 10.2623 21.6249 10.2836C21.6218 10.2838 21.6187 10.2842 21.6156 10.2845C21.6076 10.2854 21.5996 10.2857 21.5916 10.2857H2.40844C2.13234 10.2857 1.90125 9.98937 1.93655 9.64423ZM19.3705 13.2526C18.3405 12.1075 16.9564 12.1075 15.9263 13.2526C15.2537 14.0002 14.4181 14.0002 13.7455 13.2526C12.7155 12.1075 11.3314 12.1075 10.3013 13.2526C9.62869 14.0002 8.79309 14.0002 8.12053 13.2526C7.09045 12.1075 5.70638 12.1074 4.6762 13.2527C4.10616 13.8869 3.42323 13.9875 2.8125 13.5414V11.4286H21.1875V13.5746C20.5894 13.9802 19.9241 13.8679 19.3705 13.2526ZM21.1875 14.8139V16H2.8125V14.7967C3.06595 14.9037 3.32606 14.9571 3.58594 14.9571C4.19086 14.9571 4.79419 14.6686 5.30808 14.097C5.98064 13.3494 6.81628 13.3494 7.48884 14.097C8.51892 15.2422 9.90305 15.2422 10.9331 14.097C11.6057 13.3494 12.4413 13.3494 13.1138 14.097C14.1439 15.2422 15.528 15.2422 16.5581 14.097C17.2306 13.3493 18.0663 13.3494 18.7388 14.097C19.4559 14.8943 20.3562 15.1393 21.1875 14.8139ZM21.9525 20.1417C21.5006 21.7658 20.2513 22.8571 18.8438 22.8571H5.15625C3.74869 22.8571 2.49937 21.7658 2.04764 20.142C1.95037 19.7917 2.19848 19.4286 2.50594 19.4286H21.4941C21.8026 19.4286 22.0492 19.7934 21.9525 20.1417ZM22.5938 18.2857H1.40625C1.14778 18.2857 0.9375 18.0294 0.9375 17.7143C0.9375 17.3988 1.14745 17.1429 1.40625 17.1429H22.5938C22.8522 17.1429 23.0625 17.3992 23.0625 17.7143C23.0625 18.0298 22.8525 18.2857 22.5938 18.2857Z" fill="#F66141"/>
</svg>
