<svg width="32" height="32" viewBox="0 0 32 32" fill="none" xmlns="http://www.w3.org/2000/svg">
<g filter="url(#filter0_d_2_23)">
<path d="M26.141 10.4219C25.7986 10.3034 25.4406 10.236 25.0785 10.222C25.0065 10.2164 24.9186 10.21 24.8474 10.2012C24.883 10.154 24.9246 10.102 24.9594 10.058C25.2597 9.72331 25.4761 9.322 25.5908 8.88719C25.8227 7.87431 25.8743 5.96811 24.5967 5.24834C24.3165 5.09805 24.0085 5.00671 23.6917 4.97996C23.3748 4.95321 23.0559 4.99161 22.7545 5.09279C21.9469 5.33523 21.2639 5.87941 20.8471 6.61231C20.392 7.49203 20.6359 8.38655 20.8323 9.10512C20.9522 9.54978 21.0682 9.96965 20.9246 10.1048C20.7579 10.2648 20.2604 10.1308 19.779 9.99924C19.6282 9.95925 19.4735 9.91926 19.3183 9.87928C19.0647 9.31871 18.6549 8.84311 18.138 8.50938C17.6211 8.17565 17.0189 7.99792 16.4037 7.99747C16.3925 7.99747 16.3821 7.99747 16.3709 7.99747C16.3321 7.69333 16.2558 7.39515 16.1437 7.10975C15.3464 5.08519 13.1075 4.06151 11.6388 4.49777C11.2184 4.62893 10.8423 4.87324 10.5515 5.20395C10.2243 4.73525 9.80052 4.34202 9.3087 4.05071C8.75028 3.75476 8.13682 3.57715 7.50665 3.52899C6.87649 3.48083 6.24317 3.56315 5.64625 3.7708C5.31325 3.86178 5.0036 4.02307 4.73818 4.24379C4.47275 4.46452 4.25771 4.73956 4.10754 5.0504C3.73446 5.9949 4.42744 7.06696 5.68704 9.01315C5.8214 9.22108 5.96175 9.42462 6.10091 9.62935C5.76901 9.75231 5.44652 9.89932 5.13601 10.0692C4.70825 10.2755 4.36304 10.6207 4.15672 11.0485C4.02988 11.4858 3.97943 11.9417 4.00757 12.3961C4.01106 15.4706 5.23394 18.4181 7.40792 20.5921C9.5819 22.7661 12.5294 23.9889 15.6039 23.9924H16.4037C19.4781 23.9889 22.4257 22.7661 24.5997 20.5921C26.7736 18.4181 27.9965 15.4706 28 12.3961C27.9935 12.3342 27.979 12.2734 27.9568 12.2153C27.602 11.4081 26.9525 10.7667 26.141 10.4219ZM19.5715 10.7754C20.2676 10.9641 20.9866 11.1593 21.4789 10.6854C21.9647 10.22 21.7812 9.54738 21.6036 8.89679C21.4261 8.24619 21.2457 7.584 21.5572 6.98179C21.8742 6.44185 22.3838 6.04186 22.9836 5.86214C23.1825 5.79385 23.3932 5.7663 23.603 5.78114C23.8128 5.79598 24.0175 5.8529 24.2048 5.94852C25.0097 6.40197 25.0085 7.84832 24.811 8.71004C24.7208 9.0256 24.558 9.31566 24.3356 9.55698C24.1164 9.83089 23.8437 10.1712 24.0432 10.5751C24.236 10.9601 24.6523 10.9913 25.0193 11.0185C25.3052 11.0279 25.5881 11.0791 25.8591 11.1705C26.2745 11.34 26.6315 11.6269 26.8864 11.9962H22.8816C22.9736 11.4912 23.0748 10.9857 23.1915 10.4883C23.4094 9.55938 23.675 8.62967 23.9805 7.72555L23.2231 7.46964C22.9092 8.39774 22.6365 9.35184 22.4126 10.3051C22.2818 10.863 22.169 11.43 22.0691 11.9962H19.4979C19.6055 11.5986 19.6306 11.1831 19.5715 10.7754ZM16.8035 9.59696V8.83321C17.2497 8.90936 17.6652 9.10995 18.0024 9.41188C18.3396 9.7138 18.5846 10.1048 18.7093 10.5399L17.8768 10.8174L18.1295 11.5771L18.7945 11.3556C18.7815 11.5742 18.7378 11.7898 18.6645 11.9962H14.1428C14.0507 11.7396 14.0039 11.469 14.0044 11.1965C14.0046 11.1163 14.0087 11.0363 14.0168 10.9565L14.6778 11.1769L14.9305 10.4171L14.2315 10.184C14.3959 9.83247 14.643 9.52601 14.9516 9.29078C15.2603 9.05554 15.6213 8.89855 16.0038 8.83321V9.59696H16.8035ZM11.8671 5.26593C12.9571 4.94123 14.7766 5.82295 15.4 7.40486C15.4889 7.63118 15.5493 7.86774 15.5795 8.10903C14.7656 8.32259 14.0694 8.84979 13.6431 9.57533C13.2169 10.3009 13.0953 11.1657 13.305 11.9806L13.2718 11.9962H11.4276C11.5988 11.8183 11.7663 11.6363 11.9187 11.4444C12.8636 10.2294 13.4471 8.77268 13.6021 7.24131L12.8072 7.15414C12.6661 8.53561 12.1412 9.85002 11.2917 10.9485C11.2693 10.9769 11.2421 11.0017 11.2193 11.0285C11.8065 9.36368 11.7231 7.53571 10.9866 5.93132C11.2 5.61974 11.5091 5.38616 11.8671 5.26593ZM4.8517 5.34591C4.96271 5.14448 5.11389 4.968 5.2959 4.82741C5.4779 4.68681 5.68684 4.5851 5.90977 4.52856C6.39838 4.36015 6.91607 4.29256 7.43154 4.32988C7.94702 4.3672 8.44957 4.50865 8.90882 4.7457C10.8218 5.85015 11.2593 9.03274 10.3592 11.0333C10.3276 11.1037 10.2904 11.1685 10.2544 11.2332C10.1772 10.9074 10.0905 10.5847 9.98488 10.27C9.33152 8.35475 8.19087 6.6426 6.67513 5.30192L6.1385 5.89453C7.55202 7.14349 8.61629 8.73872 9.22672 10.5235C9.38638 11.0046 9.51027 11.4968 9.59741 11.9962H8.90603C7.98154 10.9156 7.13044 9.77437 6.35843 8.58009C5.22239 6.82344 4.63937 5.88214 4.8517 5.34511V5.34591ZM4.88729 11.3712C5.01975 11.1031 5.24288 10.8906 5.51709 10.7714C5.85476 10.586 6.20849 10.4316 6.57396 10.3099C6.98903 10.8882 7.42023 11.4502 7.86755 11.9962H4.82851C4.78642 11.7866 4.80686 11.5693 4.88729 11.3712ZM16.4037 23.1927H15.6039C12.8106 23.1895 10.127 22.1052 8.11559 20.167C6.10417 18.2288 4.92115 15.5872 4.81452 12.796H27.1931C27.0864 15.5872 25.9034 18.2288 23.892 20.167C21.8806 22.1052 19.1969 23.1895 16.4037 23.1927Z" fill="#F66141"/>
<path d="M16.8035 10.3967H16.0038V11.1964H16.8035V10.3967Z" fill="#F66141"/>
<path d="M16.8035 4.79848V5.59823C16.8035 5.70428 16.8457 5.80599 16.9206 5.88098C16.9956 5.95597 17.0973 5.9981 17.2034 5.9981H18.8029C19.757 5.99704 20.6718 5.61754 21.3465 4.94285C22.0212 4.26816 22.4007 3.35339 22.4018 2.39924V1.59949C22.4018 1.49344 22.3596 1.39173 22.2846 1.31674C22.2096 1.24174 22.1079 1.19962 22.0019 1.19962H20.4024C19.4482 1.20067 18.5335 1.58018 17.8588 2.25487C17.1841 2.92956 16.8046 3.84433 16.8035 4.79848ZM20.4024 1.99936H21.602V2.39924C21.6012 3.14135 21.306 3.85282 20.7812 4.37758C20.2565 4.90233 19.545 5.19751 18.8029 5.19835H18.2831L20.2616 3.50249L19.7418 2.89548L17.6065 4.7257C17.6254 3.99657 17.9283 3.30364 18.4505 2.79443C18.9727 2.28521 19.673 1.99995 20.4024 1.99936Z" fill="#F66141"/>
<path d="M13.2047 2.39924C13.2047 2.6365 13.275 2.86843 13.4068 3.06571C13.5386 3.26299 13.726 3.41675 13.9452 3.50754C14.1644 3.59834 14.4056 3.6221 14.6383 3.57581C14.871 3.52952 15.0848 3.41527 15.2525 3.2475C15.4203 3.07973 15.5346 2.86598 15.5808 2.63327C15.6271 2.40057 15.6034 2.15936 15.5126 1.94016C15.4218 1.72096 15.268 1.5336 15.0707 1.40179C14.8735 1.26997 14.6415 1.19962 14.4043 1.19962C14.0861 1.19962 13.781 1.326 13.556 1.55098C13.331 1.77595 13.2047 2.08108 13.2047 2.39924ZM14.8041 2.39924C14.8041 2.47832 14.7807 2.55564 14.7368 2.6214C14.6928 2.68715 14.6304 2.73841 14.5573 2.76867C14.4842 2.79894 14.4038 2.80686 14.3263 2.79143C14.2487 2.776 14.1774 2.73791 14.1215 2.68199C14.0656 2.62607 14.0275 2.55482 14.0121 2.47725C13.9967 2.39968 14.0046 2.31928 14.0348 2.24621C14.0651 2.17314 14.1164 2.11069 14.1821 2.06675C14.2479 2.02282 14.3252 1.99936 14.4043 1.99936C14.5103 1.99936 14.612 2.04149 14.687 2.11648C14.762 2.19147 14.8041 2.29318 14.8041 2.39924Z" fill="#F66141"/>
<path d="M8.00632 1.19962C8.00632 1.43688 8.07667 1.66882 8.20849 1.8661C8.34031 2.06337 8.52766 2.21713 8.74686 2.30793C8.96607 2.39872 9.20727 2.42248 9.43997 2.37619C9.67268 2.3299 9.88643 2.21565 10.0542 2.04788C10.222 1.88011 10.3362 1.66636 10.3825 1.43366C10.4288 1.20095 10.405 0.959748 10.3142 0.740546C10.2234 0.521344 10.0697 0.333989 9.87241 0.202173C9.67514 0.0703566 9.4432 0 9.20594 0C8.88778 0 8.58265 0.126388 8.35768 0.351361C8.13271 0.576334 8.00632 0.881462 8.00632 1.19962ZM9.60581 1.19962C9.60581 1.27871 9.58236 1.35602 9.53842 1.42178C9.49448 1.48754 9.43203 1.53879 9.35896 1.56906C9.2859 1.59932 9.2055 1.60724 9.12793 1.59181C9.05036 1.57638 8.97911 1.5383 8.92319 1.48237C8.86726 1.42645 8.82918 1.3552 8.81375 1.27763C8.79832 1.20007 8.80624 1.11966 8.8365 1.0466C8.86677 0.973529 8.91802 0.911077 8.98378 0.867139C9.04954 0.8232 9.12685 0.799748 9.20594 0.799748C9.31199 0.799748 9.4137 0.841877 9.48869 0.916868C9.56368 0.991859 9.60581 1.09357 9.60581 1.19962Z" fill="#F66141"/>
<path d="M7.54845 16.5872L6.86467 17.0022C7.95338 18.7984 9.53963 20.2404 11.4312 21.1533L11.7791 20.4335C10.0267 19.5873 8.55721 18.2513 7.54845 16.5872Z" fill="#F66141"/>
<path d="M13.2047 20.7934H12.4049V21.5932H13.2047V20.7934Z" fill="#F66141"/>
</g>
<defs>
<filter id="filter0_d_2_23" x="0" y="0" width="32" height="31.9924" filterUnits="userSpaceOnUse" color-interpolation-filters="sRGB">
<feFlood flood-opacity="0" result="BackgroundImageFix"/>
<feColorMatrix in="SourceAlpha" type="matrix" values="0 0 0 0 0 0 0 0 0 0 0 0 0 0 0 0 0 0 127 0" result="hardAlpha"/>
<feOffset dy="4"/>
<feGaussianBlur stdDeviation="2"/>
<feComposite in2="hardAlpha" operator="out"/>
<feColorMatrix type="matrix" values="0 0 0 0 0 0 0 0 0 0 0 0 0 0 0 0 0 0 0.25 0"/>
<feBlend mode="normal" in2="BackgroundImageFix" result="effect1_dropShadow_2_23"/>
<feBlend mode="normal" in="SourceGraphic" in2="effect1_dropShadow_2_23" result="shape"/>
</filter>
</defs>
</svg>
