<svg width="25" height="26" viewBox="0 0 25 26" fill="none" xmlns="http://www.w3.org/2000/svg">
<path d="M8.89208 23.5868V19.7354C8.89206 18.7594 9.69032 17.9665 10.6791 17.9604H14.3096C15.3028 17.9604 16.1079 18.7551 16.1079 19.7354V23.5756C16.1079 24.4221 16.7998 25.1101 17.6574 25.1162H20.1343C21.2911 25.1192 22.4016 24.6677 23.2206 23.8613C24.0397 23.055 24.5 21.9601 24.5 20.8182V9.87802C24.5 8.95568 24.0858 8.08079 23.369 7.48903L14.9543 0.846754C13.4834 -0.315055 11.3826 -0.277524 9.95523 0.936062L1.72149 7.48903C0.97083 8.06334 0.522171 8.94083 0.5 9.87802V20.8071C0.5 23.1869 2.45459 25.1162 4.86569 25.1162H7.28605C7.69895 25.1192 8.09598 24.9594 8.38902 24.6722C8.68205 24.3851 8.84685 23.9944 8.84684 23.5868H8.89208Z" fill="white" fill-opacity="0.94"/>
</svg>
