<svg width="45" height="45" viewBox="0 0 45 45" fill="none" xmlns="http://www.w3.org/2000/svg">
<path d="M22.4922 0C17.9716 0.00388496 13.5568 1.36873 9.82273 3.91684C6.08864 6.46494 3.20821 10.0783 1.55647 14.2864C-0.0952759 18.4944 -0.441812 23.1024 0.561978 27.5102C1.56577 31.918 3.87338 35.9214 7.18437 38.9994L8.65926 38.2231C10.9259 37.0121 14.6442 35.0249 15.405 34.5514C15.7398 34.3801 16.0316 34.1355 16.2588 33.8358C16.4859 33.5361 16.6425 33.189 16.7169 32.8203V30.3208C15.5126 28.7515 14.629 26.9605 14.1164 25.05C14.1029 24.9895 14.0702 24.9351 14.0232 24.8947C13.7371 24.677 13.4976 24.404 13.3189 24.092C13.1402 23.78 13.026 23.4352 12.983 23.0783V19.1348C13.1018 18.7087 13.2993 18.3085 13.5652 17.9549C13.6268 17.8779 13.6693 17.7875 13.6894 17.691V13.3206C13.6795 12.4932 13.8351 11.672 14.1471 10.9055C14.459 10.139 14.921 9.44258 15.5059 8.85714C17.1283 7.30462 19.4648 6.48178 22.4922 6.48178C25.5197 6.48178 27.8096 7.25804 29.4786 8.85714C30.0649 9.44193 30.5283 10.1381 30.8416 10.9046C31.1549 11.6712 31.3117 12.4926 31.3028 13.3206V17.691C31.3251 17.7944 31.3732 17.8905 31.4425 17.9705C31.7079 18.3165 31.9007 18.7125 32.0092 19.1348V19.3289V23.0783C31.965 23.4388 31.8488 23.7868 31.6675 24.1015C31.4861 24.4162 31.2433 24.6912 30.9535 24.9102C30.9196 24.9447 30.8955 24.9876 30.8836 25.0344C30.3721 26.9516 29.4856 28.7483 28.2754 30.3208V32.8281C28.3513 33.1961 28.5085 33.5425 28.7355 33.842C28.9625 34.1415 29.2535 34.3865 29.5873 34.5592C30.3635 35.0327 34.0663 37.0121 36.3485 38.2231L37.8156 38.9994C41.1276 35.9205 43.4356 31.9156 44.4389 27.5064C45.4422 23.0971 45.0944 18.4879 43.4407 14.2791C41.787 10.0704 38.9042 6.4572 35.1677 3.91028C31.4311 1.36336 27.0142 0.000769215 22.4922 0Z" fill="#10384D"/>
<path d="M15.1773 34.1063L15.1586 34.1158L15.1408 34.1269C14.3987 34.5888 10.7059 36.5628 8.4254 37.7812C8.42482 37.7815 8.42424 37.7818 8.42366 37.7821L7.26784 38.3904C4.16788 35.4145 2.00481 31.5941 1.0495 27.3991C0.0680015 23.0892 0.40684 18.5837 2.0219 14.469C3.63695 10.3544 6.45341 6.82135 10.1046 4.32984C13.7556 1.83838 18.0723 0.503851 22.4924 0.5C26.9139 0.500803 31.2326 1.83313 34.886 4.32343C38.5395 6.81378 41.3584 10.3467 42.9753 14.462C44.5923 18.5773 44.9324 23.0841 43.9513 27.3954C42.9965 31.5915 40.8333 35.4131 37.7328 38.3899L36.5829 37.7814C34.2905 36.5651 30.6073 34.5957 29.8477 34.1323L29.8326 34.1231L29.817 34.115C29.5493 33.9766 29.316 33.7802 29.134 33.54C28.9617 33.3127 28.8396 33.0517 28.7754 32.7742V30.4894C29.9576 28.9177 30.8304 27.1353 31.3469 25.237C31.6497 24.9903 31.9053 24.6902 32.1007 24.3511C32.3155 23.9783 32.4532 23.5661 32.5055 23.1391L32.5092 23.1088V23.0783V19.3289V19.1348V19.0716L32.4935 19.0104C32.3682 18.5228 32.1457 18.0656 31.8393 17.6661L31.8301 17.6542L31.8202 17.6427C31.8133 17.6349 31.8075 17.6262 31.8028 17.617V13.3233C31.812 12.4295 31.6426 11.5429 31.3044 10.7155C30.9659 9.8872 30.4652 9.135 29.8317 8.50313L29.8318 8.50306L29.8245 8.49611C28.0361 6.78259 25.6068 5.98178 22.4922 5.98178C19.3752 5.98178 16.9005 6.83051 15.1602 8.4959L15.1601 8.49581L15.1522 8.50375C14.5202 9.13632 14.021 9.88882 13.6839 10.717C13.3473 11.5443 13.1792 12.4305 13.1894 13.3236V17.6195C13.1853 17.6278 13.1804 17.6356 13.1745 17.6429L13.17 17.6486L13.1657 17.6544C12.8622 18.0578 12.6369 18.5144 12.5014 19.0006L12.483 19.0665V19.1348V23.0783V23.1082L12.4866 23.138C12.5376 23.5614 12.6731 23.9703 12.885 24.3404C13.0819 24.6842 13.341 24.988 13.6489 25.2365C14.1657 27.134 15.0372 28.9162 16.2169 30.489V32.7676C16.154 33.0453 16.0325 33.3066 15.8603 33.5338C15.6786 33.7736 15.4451 33.9692 15.1773 34.1063Z" stroke="white" stroke-opacity="0.94"/>
<path d="M28.7489 35.871C28.1873 35.5674 27.708 35.1318 27.3524 34.6017C26.9967 34.0715 26.7753 33.4628 26.7073 32.8281V29.723L26.9091 29.5057C28.0626 28.0697 28.8987 26.4056 29.3621 24.623C29.4531 24.2872 29.6359 23.9835 29.89 23.7458C30.1292 23.5627 30.3188 23.3225 30.4411 23.0472V19.4065C30.3874 19.2241 30.3005 19.053 30.185 18.902C29.8919 18.553 29.7251 18.1154 29.7114 17.6599V13.3206C29.7201 12.7012 29.6052 12.0862 29.3732 11.5117C29.1413 10.9372 28.7971 10.4148 28.3608 9.97496C27.0333 8.68636 25.0539 8.0343 22.4922 8.0343C19.9306 8.0343 17.9511 8.68636 16.6237 9.97496C16.1859 10.4141 15.8403 10.9363 15.607 11.5108C15.3738 12.0853 15.2575 12.7006 15.2652 13.3206V17.691C15.2561 18.1399 15.0946 18.5724 14.8072 18.9175C14.6899 19.0755 14.5982 19.251 14.5355 19.4376V23.0782C14.6601 23.3392 14.8434 23.5677 15.0712 23.7458C15.3368 23.9861 15.5257 24.2993 15.6145 24.6463C16.0866 26.4178 16.9249 28.0705 18.0753 29.4979L18.2694 29.7153V32.8203C18.2007 33.4549 17.9791 34.0633 17.6235 34.5933C17.2679 35.1234 16.7889 35.5592 16.2278 35.8633C15.4515 36.329 12.2533 38.0679 9.95559 39.2866L8.44965 40.0629C12.4338 43.2586 17.3886 45.0002 22.4961 45.0002C27.6036 45.0002 32.5584 43.2586 36.5425 40.0629L35.0366 39.2866C32.7389 38.0368 29.4786 36.3368 28.7489 35.871Z" fill="white" fill-opacity="0.94"/>
</svg>
