<svg width="60" height="52" viewBox="0 0 60 52" fill="none" xmlns="http://www.w3.org/2000/svg">
<path d="M29.9896 0C23.962 0.00517992 18.0757 1.82497 13.0969 5.22243C8.11816 8.61989 4.2776 13.4376 2.07528 19.0484C-0.127034 24.6592 -0.58908 30.803 0.749301 36.6801C2.08768 42.5571 5.16448 47.8951 9.57912 51.999L11.5456 50.964C14.5679 49.3494 19.5256 46.6997 20.5399 46.0684C20.9863 45.84 21.3754 45.5139 21.6783 45.1143C21.9811 44.7146 22.1899 44.2518 22.2891 43.7603V40.4276C20.6834 38.3352 19.5053 35.9472 18.8218 33.3998C18.8038 33.3192 18.7602 33.2466 18.6976 33.1928C18.3161 32.9025 17.9967 32.5386 17.7585 32.1225C17.5202 31.7065 17.368 31.2469 17.3107 30.7709V25.513C17.469 24.9448 17.7323 24.4112 18.0869 23.9398C18.1689 23.8371 18.2257 23.7166 18.2525 23.5879V17.7608C18.2393 16.6575 18.4468 15.5627 18.8627 14.5406C19.2786 13.5186 19.8946 12.5901 20.6744 11.8095C22.8376 9.73946 25.953 8.64235 29.9896 8.64235C34.0261 8.64235 37.0794 9.67736 39.3047 11.8095C40.0864 12.5892 40.7043 13.5174 41.122 14.5394C41.5397 15.5615 41.7488 16.6568 41.7369 17.7608V23.5879C41.7667 23.7258 41.8308 23.854 41.9232 23.9605C42.2771 24.4219 42.5341 24.9499 42.6788 25.513V25.7718V30.7709C42.6199 31.2516 42.4649 31.7156 42.2231 32.1352C41.9813 32.5548 41.6576 32.9215 41.2712 33.2135C41.2259 33.2595 41.1938 33.3166 41.178 33.3791C40.496 35.9353 39.314 38.331 37.7004 40.4276V43.7706C37.8016 44.2613 38.0112 44.7232 38.3139 45.1226C38.6165 45.5219 39.0045 45.8486 39.4496 46.0787C40.4846 46.7101 45.4216 49.3494 48.4645 50.964L50.4207 51.999C54.8366 47.8939 57.9139 42.554 59.2516 36.675C60.5894 30.796 60.1256 24.6504 57.9207 19.0388C55.7158 13.4271 51.872 8.60958 46.89 5.2137C41.9081 1.81781 36.0188 0.00102562 29.9896 0Z" fill="#10384D"/>
</svg>
