<svg width="1364" height="64" viewBox="0 0 1364 64" fill="none" xmlns="http://www.w3.org/2000/svg">
<path d="M17 1C8.16344 1 1 8.16344 1 17V47C1 55.8366 8.16346 63 17 63H1347C1355.84 63 1363 55.8366 1363 47V17C1363 8.16345 1355.84 1 1347 1H17Z" fill="white" fill-opacity="0.06" stroke="url(#paint0_linear_5_342)" stroke-width="2"/>
<path d="M37.875 43.3906L39.5312 40.5312C40.5417 41.1562 41.4844 41.599 42.3594 41.8594C43.2344 42.1094 44.2135 42.2344 45.2969 42.2344C46.5885 42.2344 47.6042 41.9583 48.3438 41.4062C49.0938 40.8438 49.4688 40.0417 49.4688 39C49.4688 38.0521 49.1562 37.3073 48.5312 36.7656C47.9167 36.2135 46.8698 35.7083 45.3906 35.25C43.1094 34.5729 41.4323 33.7344 40.3594 32.7344C39.2865 31.7344 38.75 30.3802 38.75 28.6719C38.75 26.8177 39.4427 25.2812 40.8281 24.0625C42.2135 22.8333 44.0938 22.2188 46.4688 22.2188C47.5104 22.2188 48.5365 22.3333 49.5469 22.5625C50.5573 22.7917 51.5573 23.1458 52.5469 23.625L51.1562 26.5938C50.2917 26.1458 49.4635 25.8281 48.6719 25.6406C47.8906 25.4531 47.0938 25.3594 46.2812 25.3594C45.0938 25.3594 44.1562 25.6198 43.4688 26.1406C42.7917 26.6615 42.4531 27.3958 42.4531 28.3438C42.4531 29.1875 42.7656 29.8542 43.3906 30.3438C44.0156 30.8229 45.0885 31.2969 46.6094 31.7656C48.9427 32.4635 50.6198 33.3333 51.6406 34.375C52.6719 35.4167 53.1875 36.849 53.1875 38.6719C53.1875 40.6302 52.4896 42.2396 51.0938 43.5C49.6979 44.75 47.7083 45.375 45.125 45.375C43.8333 45.375 42.5729 45.2135 41.3438 44.8906C40.1146 44.5573 38.9583 44.0573 37.875 43.3906Z" fill="white" fill-opacity="0.786"/>
<path d="M70.3438 37.9531H59.4219C59.4844 39.4635 59.9219 40.6146 60.7344 41.4062C61.5469 42.1875 62.6823 42.5781 64.1406 42.5781C64.7344 42.5781 65.4115 42.4583 66.1719 42.2188C66.9323 41.9792 67.6823 41.5938 68.4219 41.0625L70.0625 43.3281C69.0729 44.0469 68.0677 44.5677 67.0469 44.8906C66.026 45.2135 64.901 45.375 63.6719 45.375C61.1823 45.375 59.2448 44.6615 57.8594 43.2344C56.474 41.7969 55.776 39.7917 55.7656 37.2188C55.7656 34.6562 56.4792 32.5833 57.9062 31C59.3438 29.4167 61.1823 28.625 63.4219 28.625C65.5677 28.625 67.2552 29.3021 68.4844 30.6562C69.724 32 70.3438 33.9062 70.3438 36.375V37.9531ZM66.8281 35.4375C66.8281 34.0625 66.526 33.0312 65.9219 32.3438C65.3281 31.6458 64.4844 31.2969 63.3906 31.2969C62.3594 31.2969 61.4792 31.6719 60.75 32.4219C60.0312 33.1615 59.5885 34.1667 59.4219 35.4375H66.8281Z" fill="white" fill-opacity="0.786"/>
<path d="M86.0156 45H82.5V42.5938H82.4375C81.8958 43.5208 81.224 44.2188 80.4219 44.6875C79.6198 45.1458 78.6979 45.375 77.6562 45.375C76.2083 45.375 75.0052 44.9479 74.0469 44.0938C73.0885 43.2292 72.6094 42.0521 72.6094 40.5625C72.6094 39.1458 73.0885 37.9844 74.0469 37.0781C75.0052 36.1615 76.4271 35.5677 78.3125 35.2969L82.5156 34.7344V34.4062C82.5156 33.3229 82.2344 32.5365 81.6719 32.0469C81.1094 31.5573 80.349 31.3125 79.3906 31.3125C78.6302 31.3125 77.8542 31.4479 77.0625 31.7188C76.2812 31.9896 75.5208 32.4115 74.7812 32.9844L73.2031 30.8125C74.1823 30.0625 75.1927 29.5104 76.2344 29.1562C77.276 28.8021 78.4219 28.625 79.6719 28.625C81.8177 28.625 83.4115 29.1562 84.4531 30.2188C85.4948 31.2708 86.0156 32.8542 86.0156 34.9688V45ZM82.5156 38.5V37.1406L79.0938 37.5938C78.0833 37.7396 77.3229 38.0156 76.8125 38.4219C76.3125 38.8177 76.0625 39.401 76.0625 40.1719C76.0625 40.9531 76.3021 41.5625 76.7812 42C77.2604 42.4375 77.875 42.6562 78.625 42.6562C79.8021 42.6562 80.7448 42.2656 81.4531 41.4844C82.1615 40.6927 82.5156 39.6979 82.5156 38.5Z" fill="white" fill-opacity="0.786"/>
<path d="M99.4219 32.0469C99.224 31.9948 99.0312 31.9583 98.8438 31.9375C98.6667 31.9062 98.4583 31.8906 98.2188 31.8906C96.9167 31.8906 95.9167 32.3698 95.2188 33.3281C94.5208 34.2865 94.1719 35.5365 94.1719 37.0781V45H90.5312V29H94.1719V32.0781H94.2344C94.6094 30.974 95.1615 30.1406 95.8906 29.5781C96.6198 29.0052 97.4792 28.7188 98.4688 28.7188C98.75 28.7188 99 28.7344 99.2188 28.7656C99.4479 28.7969 99.6667 28.8438 99.875 28.9062L99.4219 32.0469Z" fill="white" fill-opacity="0.786"/>
<path d="M114.344 44.0156C113.552 44.4948 112.766 44.8385 111.984 45.0469C111.203 45.2656 110.354 45.375 109.438 45.375C106.979 45.375 105.01 44.6562 103.531 43.2188C102.062 41.7812 101.328 39.8281 101.328 37.3594C101.328 34.7031 102.089 32.5833 103.609 31C105.141 29.4167 107.203 28.625 109.797 28.625C110.703 28.625 111.526 28.724 112.266 28.9219C113.016 29.1094 113.776 29.4219 114.547 29.8594L113.125 32.3906C112.583 32.0885 112.052 31.8698 111.531 31.7344C111.01 31.5885 110.443 31.5156 109.828 31.5156C108.297 31.5156 107.115 32.0208 106.281 33.0312C105.448 34.0417 105.031 35.3802 105.031 37.0469C105.031 38.7969 105.479 40.1406 106.375 41.0781C107.281 42.0156 108.417 42.4844 109.781 42.4844C110.198 42.4844 110.677 42.4115 111.219 42.2656C111.76 42.1094 112.307 41.8646 112.859 41.5312L114.344 44.0156Z" fill="white" fill-opacity="0.786"/>
<path d="M131.641 45H128.016V35.8438C128.016 34.3958 127.75 33.3125 127.219 32.5938C126.688 31.875 125.885 31.5156 124.812 31.5156C123.74 31.5156 122.844 31.9271 122.125 32.75C121.417 33.5729 121.062 34.625 121.062 35.9062V45H117.422V21.3125H121.062V31.5312H121.125C121.729 30.5521 122.458 29.8229 123.312 29.3438C124.167 28.8646 125.135 28.625 126.219 28.625C128.021 28.625 129.375 29.1719 130.281 30.2656C131.188 31.349 131.641 32.9792 131.641 35.1562V45Z" fill="white" fill-opacity="0.786"/>
<path d="M153.516 24.1719C153.224 24.0573 152.958 23.9792 152.719 23.9375C152.479 23.8854 152.219 23.8594 151.938 23.8594C151.167 23.8594 150.583 24.0833 150.188 24.5312C149.802 24.9688 149.609 25.6042 149.609 26.4375V29H153.312V31.8438H149.609V45H145.984V31.8438H143.266V29H145.984V26.25C145.984 24.625 146.505 23.3385 147.547 22.3906C148.599 21.4323 149.99 20.9531 151.719 20.9531C152.26 20.9531 152.729 20.9896 153.125 21.0625C153.521 21.1354 153.932 21.2396 154.359 21.375L153.516 24.1719Z" fill="white" fill-opacity="0.786"/>
<path d="M163 45.375C160.5 45.375 158.516 44.6302 157.047 43.1406C155.589 41.6406 154.859 39.6354 154.859 37.125C154.87 34.4688 155.63 32.3906 157.141 30.8906C158.651 29.3802 160.708 28.625 163.312 28.625C165.823 28.6146 167.781 29.3542 169.188 30.8438C170.604 32.3229 171.312 34.3281 171.312 36.8594C171.312 39.4635 170.562 41.5365 169.062 43.0781C167.573 44.6094 165.552 45.375 163 45.375ZM163.172 42.4844C164.62 42.4844 165.719 42.0104 166.469 41.0625C167.229 40.1146 167.609 38.7448 167.609 36.9531C167.609 35.1823 167.229 33.8333 166.469 32.9062C165.708 31.9792 164.604 31.5156 163.156 31.5156C161.729 31.5156 160.604 32.0052 159.781 32.9844C158.969 33.9635 158.562 35.3177 158.562 37.0469C158.562 38.7865 158.969 40.1302 159.781 41.0781C160.594 42.0156 161.724 42.4844 163.172 42.4844Z" fill="white" fill-opacity="0.786"/>
<path d="M183.922 32.0469C183.724 31.9948 183.531 31.9583 183.344 31.9375C183.167 31.9062 182.958 31.8906 182.719 31.8906C181.417 31.8906 180.417 32.3698 179.719 33.3281C179.021 34.2865 178.672 35.5365 178.672 37.0781V45H175.031V29H178.672V32.0781H178.734C179.109 30.974 179.661 30.1406 180.391 29.5781C181.12 29.0052 181.979 28.7188 182.969 28.7188C183.25 28.7188 183.5 28.7344 183.719 28.7656C183.948 28.7969 184.167 28.8438 184.375 28.9062L183.922 32.0469Z" fill="white" fill-opacity="0.786"/>
<path d="M207.656 44.0156C206.865 44.4948 206.078 44.8385 205.297 45.0469C204.516 45.2656 203.667 45.375 202.75 45.375C200.292 45.375 198.323 44.6562 196.844 43.2188C195.375 41.7812 194.641 39.8281 194.641 37.3594C194.641 34.7031 195.401 32.5833 196.922 31C198.453 29.4167 200.516 28.625 203.109 28.625C204.016 28.625 204.839 28.724 205.578 28.9219C206.328 29.1094 207.089 29.4219 207.859 29.8594L206.438 32.3906C205.896 32.0885 205.365 31.8698 204.844 31.7344C204.323 31.5885 203.755 31.5156 203.141 31.5156C201.609 31.5156 200.427 32.0208 199.594 33.0312C198.76 34.0417 198.344 35.3802 198.344 37.0469C198.344 38.7969 198.792 40.1406 199.688 41.0781C200.594 42.0156 201.729 42.4844 203.094 42.4844C203.51 42.4844 203.99 42.4115 204.531 42.2656C205.073 42.1094 205.62 41.8646 206.172 41.5312L207.656 44.0156Z" fill="white" fill-opacity="0.786"/>
<path d="M217.844 45.375C215.344 45.375 213.359 44.6302 211.891 43.1406C210.432 41.6406 209.703 39.6354 209.703 37.125C209.714 34.4688 210.474 32.3906 211.984 30.8906C213.495 29.3802 215.552 28.625 218.156 28.625C220.667 28.6146 222.625 29.3542 224.031 30.8438C225.448 32.3229 226.156 34.3281 226.156 36.8594C226.156 39.4635 225.406 41.5365 223.906 43.0781C222.417 44.6094 220.396 45.375 217.844 45.375ZM218.016 42.4844C219.464 42.4844 220.562 42.0104 221.312 41.0625C222.073 40.1146 222.453 38.7448 222.453 36.9531C222.453 35.1823 222.073 33.8333 221.312 32.9062C220.552 31.9792 219.448 31.5156 218 31.5156C216.573 31.5156 215.448 32.0052 214.625 32.9844C213.812 33.9635 213.406 35.3177 213.406 37.0469C213.406 38.7865 213.812 40.1302 214.625 41.0781C215.438 42.0156 216.568 42.4844 218.016 42.4844Z" fill="white" fill-opacity="0.786"/>
<path d="M244.125 45H240.5V35.9844C240.5 34.4948 240.229 33.3802 239.688 32.6406C239.146 31.8906 238.333 31.5156 237.25 31.5156C236.167 31.5156 235.271 31.9271 234.562 32.75C233.854 33.5729 233.5 34.6146 233.5 35.875V45H229.859V29H233.5V31.5938H233.562C234.156 30.6042 234.885 29.8646 235.75 29.375C236.615 28.875 237.62 28.625 238.766 28.625C240.516 28.625 241.844 29.1823 242.75 30.2969C243.667 31.4115 244.125 33.0521 244.125 35.2188V45Z" fill="white" fill-opacity="0.786"/>
<path d="M257.266 44.7812C256.797 44.9792 256.307 45.125 255.797 45.2188C255.286 45.3125 254.74 45.3594 254.156 45.3594C252.677 45.3594 251.536 44.9688 250.734 44.1875C249.943 43.3958 249.547 42.2188 249.547 40.6562V31.8438H246.859V29H249.547V25.1094L253.172 24.0156V29H257V31.8438H253.172V40.3594C253.172 41.1406 253.312 41.7031 253.594 42.0469C253.885 42.3906 254.333 42.5625 254.938 42.5625C255.229 42.5625 255.505 42.5312 255.766 42.4688C256.036 42.3958 256.276 42.3073 256.484 42.2031L257.266 44.7812Z" fill="white" fill-opacity="0.786"/>
<path d="M273.656 37.9531H262.734C262.797 39.4635 263.234 40.6146 264.047 41.4062C264.859 42.1875 265.995 42.5781 267.453 42.5781C268.047 42.5781 268.724 42.4583 269.484 42.2188C270.245 41.9792 270.995 41.5938 271.734 41.0625L273.375 43.3281C272.385 44.0469 271.38 44.5677 270.359 44.8906C269.339 45.2135 268.214 45.375 266.984 45.375C264.495 45.375 262.557 44.6615 261.172 43.2344C259.786 41.7969 259.089 39.7917 259.078 37.2188C259.078 34.6562 259.792 32.5833 261.219 31C262.656 29.4167 264.495 28.625 266.734 28.625C268.88 28.625 270.568 29.3021 271.797 30.6562C273.036 32 273.656 33.9062 273.656 36.375V37.9531ZM270.141 35.4375C270.141 34.0625 269.839 33.0312 269.234 32.3438C268.641 31.6458 267.797 31.2969 266.703 31.2969C265.672 31.2969 264.792 31.6719 264.062 32.4219C263.344 33.1615 262.901 34.1667 262.734 35.4375H270.141Z" fill="white" fill-opacity="0.786"/>
<path d="M291.375 45H287.75V35.9844C287.75 34.4948 287.479 33.3802 286.938 32.6406C286.396 31.8906 285.583 31.5156 284.5 31.5156C283.417 31.5156 282.521 31.9271 281.812 32.75C281.104 33.5729 280.75 34.6146 280.75 35.875V45H277.109V29H280.75V31.5938H280.812C281.406 30.6042 282.135 29.8646 283 29.375C283.865 28.875 284.87 28.625 286.016 28.625C287.766 28.625 289.094 29.1823 290 30.2969C290.917 31.4115 291.375 33.0521 291.375 35.2188V45Z" fill="white" fill-opacity="0.786"/>
<path d="M304.516 44.7812C304.047 44.9792 303.557 45.125 303.047 45.2188C302.536 45.3125 301.99 45.3594 301.406 45.3594C299.927 45.3594 298.786 44.9688 297.984 44.1875C297.193 43.3958 296.797 42.2188 296.797 40.6562V31.8438H294.109V29H296.797V25.1094L300.422 24.0156V29H304.25V31.8438H300.422V40.3594C300.422 41.1406 300.562 41.7031 300.844 42.0469C301.135 42.3906 301.583 42.5625 302.188 42.5625C302.479 42.5625 302.755 42.5312 303.016 42.4688C303.286 42.3958 303.526 42.3073 303.734 42.2031L304.516 44.7812Z" fill="white" fill-opacity="0.786"/>
<path d="M1326 46.4056C1326 46.6307 1325.96 46.8433 1325.87 47.0434C1325.78 47.2309 1325.66 47.3998 1325.51 47.5498C1325.36 47.6874 1325.19 47.7999 1324.99 47.8875C1324.8 47.9625 1324.6 48 1324.39 48C1323.95 48 1323.58 47.8437 1323.26 47.5311L1314.64 38.9027C1313.5 39.778 1312.27 40.447 1310.93 40.9097C1309.6 41.3724 1308.22 41.6038 1306.79 41.6038C1305.61 41.6038 1304.47 41.4537 1303.37 41.1536C1302.29 40.841 1301.27 40.4095 1300.32 39.8593C1299.38 39.2966 1298.52 38.6276 1297.73 37.8523C1296.96 37.077 1296.29 36.2141 1295.74 35.2638C1295.19 34.3134 1294.76 33.2943 1294.45 32.2063C1294.15 31.1059 1294 29.968 1294 28.7925C1294 27.617 1294.15 26.4853 1294.45 25.3974C1294.76 24.3095 1295.19 23.2903 1295.74 22.34C1296.31 21.3896 1296.97 20.5268 1297.75 19.7515C1298.52 18.9762 1299.39 18.3134 1300.34 17.7632C1301.29 17.2005 1302.3 16.7691 1303.39 16.4689C1304.48 16.1563 1305.61 16 1306.79 16C1308.55 16 1310.2 16.3376 1311.75 17.0129C1313.31 17.6757 1314.67 18.5885 1315.82 19.7515C1316.98 20.9144 1317.9 22.2712 1318.58 23.8218C1319.25 25.3724 1319.59 27.0293 1319.59 28.7925C1319.59 30.2306 1319.36 31.6186 1318.9 32.9566C1318.43 34.2821 1317.76 35.5139 1316.89 36.6518L1325.51 45.2802C1325.68 45.4428 1325.79 45.6116 1325.87 45.7866C1325.96 45.9617 1326 46.168 1326 46.4056ZM1306.79 38.3962H1306.97C1308.27 38.3962 1309.49 38.1399 1310.63 37.6272C1311.78 37.102 1312.78 36.4017 1313.63 35.5264C1314.48 34.6385 1315.15 33.6194 1315.63 32.4689C1316.13 31.306 1316.38 30.0805 1316.38 28.7925C1316.38 27.467 1316.13 26.2227 1315.63 25.0598C1315.13 23.8843 1314.45 22.8652 1313.57 22.0023C1312.71 21.127 1311.69 20.4392 1310.52 19.939C1309.35 19.4388 1308.11 19.1887 1306.79 19.1887C1305.46 19.1887 1304.21 19.4388 1303.04 19.939C1301.87 20.4392 1300.85 21.127 1299.98 22.0023C1299.12 22.8652 1298.44 23.8843 1297.94 25.0598C1297.44 26.2227 1297.19 27.467 1297.19 28.7925C1297.19 30.118 1297.44 31.3685 1297.94 32.544C1298.44 33.7069 1299.12 34.7261 1299.98 35.6014C1300.85 36.4642 1301.87 37.1458 1303.04 37.646C1304.21 38.1461 1305.46 38.3962 1306.79 38.3962Z" fill="white" fill-opacity="0.786"/>
<defs>
<linearGradient id="paint0_linear_5_342" x1="682" y1="2" x2="682" y2="62" gradientUnits="userSpaceOnUse">
<stop offset="0.9998" stop-color="white" stop-opacity="0.08"/>
<stop offset="0.9999" stop-color="white" stop-opacity="0.54"/>
<stop offset="1" stop-color="white" stop-opacity="0.54"/>
</linearGradient>
</defs>
</svg>
