<svg width="25" height="25" viewBox="0 0 25 25" fill="none" xmlns="http://www.w3.org/2000/svg">
<path d="M25 23.7544C25 23.9302 24.9658 24.0963 24.8975 24.2526C24.8291 24.3992 24.7364 24.5311 24.6192 24.6483C24.5021 24.7558 24.3654 24.8437 24.2091 24.9121C24.0627 24.9707 23.9065 25 23.7405 25C23.3988 25 23.1058 24.8779 22.8617 24.6336L16.1248 17.8927C15.2363 18.5766 14.2697 19.0993 13.225 19.4607C12.19 19.8222 11.1111 20.0029 9.98828 20.0029C9.07049 20.0029 8.182 19.8857 7.32279 19.6512C6.47334 19.407 5.6776 19.0699 4.93556 18.6401C4.20328 18.2005 3.52958 17.6778 2.91447 17.0721C2.30912 16.4664 1.79164 15.7923 1.36204 15.0498C0.932435 14.3073 0.595587 13.5111 0.351494 12.6612C0.117165 11.8015 0 10.9125 0 9.99414C0 9.07581 0.117165 8.19168 0.351494 7.34174C0.595587 6.49179 0.932435 5.69558 1.36204 4.95311C1.80141 4.21063 2.32376 3.53654 2.92912 2.93083C3.53447 2.32513 4.20816 1.80735 4.95021 1.37749C5.69225 0.937866 6.48799 0.600821 7.33743 0.366354C8.18688 0.122118 9.07049 0 9.98828 0C11.365 0 12.6587 0.263775 13.8694 0.791325C15.0898 1.30911 16.1492 2.02227 17.0475 2.93083C17.9555 3.83939 18.6731 4.89937 19.2004 6.11079C19.7276 7.3222 19.9912 8.61665 19.9912 9.99414C19.9912 11.1176 19.8106 12.202 19.4493 13.2474C19.0881 14.2829 18.5657 15.2452 17.8823 16.1342L24.6192 22.8751C24.7461 23.0021 24.8389 23.134 24.8975 23.2708C24.9658 23.4076 25 23.5688 25 23.7544ZM9.98828 17.4971H10.1347C11.1502 17.4971 12.1021 17.2968 12.9906 16.8962C13.8889 16.4859 14.67 15.9388 15.3339 15.255C15.9979 14.5614 16.5202 13.7651 16.901 12.8664C17.2915 11.9578 17.4868 11.0004 17.4868 9.99414C17.4868 8.95858 17.2915 7.98652 16.901 7.07796C16.5104 6.15963 15.9734 5.36342 15.29 4.68933C14.6163 4.00547 13.8205 3.46815 12.9028 3.07737C11.9947 2.6866 11.0232 2.49121 9.98828 2.49121C8.95333 2.49121 7.97696 2.6866 7.05917 3.07737C6.15114 3.46815 5.3554 4.00547 4.67194 4.68933C3.99824 5.36342 3.46612 6.15963 3.07557 7.07796C2.68502 7.98652 2.48975 8.95858 2.48975 9.99414C2.48975 11.0297 2.68502 12.0066 3.07557 12.925C3.46612 13.8335 3.99824 14.6297 4.67194 15.3136C5.3554 15.9877 6.15114 16.5201 7.05917 16.9109C7.97696 17.3017 8.95333 17.4971 9.98828 17.4971Z" fill="white" fill-opacity="0.786"/>
</svg>
