<svg width="24" height="24" viewBox="0 0 24 24" fill="none" xmlns="http://www.w3.org/2000/svg">
<path d="M10 14.65V9.35L15 12L10 14.65ZM17.77 10.32C17 10 16.57 9.82 16.57 9.82L18 9.06C19.84 8.1 20.53 5.83 19.56 4C18.59 2.17 16.32 1.47 14.49 2.44L6.00001 6.94C4.71001 7.62 3.93001 8.98 4.00001 10.43C4.07001 11.85 4.93001 13.1 6.22001 13.68C6.25001 13.69 7.42001 14.18 7.42001 14.18L6.00001 14.93C4.17001 15.9 3.47001 18.17 4.44001 20C5.41001 21.83 7.68001 22.53 9.51001 21.56L18.01 17.06C19.3 16.38 20.07 15.02 20 13.57C19.93 12.15 19.06 10.89 17.77 10.32ZM17.54 16.18L9.04001 20.68C7.70001 21.39 6.03001 20.88 5.32001 19.54C4.61001 18.2 5.12001 16.53 6.46001 15.82L8.50001 14.74V13.53L7.81001 13.25L6.70001 12.79C5.71001 12.38 5.05001 11.44 5.00001 10.38C4.95001 9.32 5.52001 8.32 6.46001 7.82L14.96 3.32C16.3 2.61 17.97 3.12 18.68 4.46C19.39 5.8 18.88 7.47 17.54 8.18L15.5 9.26V10.47L17.3 11.21C18.29 11.62 18.95 12.56 19 13.62C19.05 14.68 18.48 15.68 17.54 16.18Z" fill="white"/>
</svg>
