<svg width="32" height="19" viewBox="0 0 32 19" fill="none" xmlns="http://www.w3.org/2000/svg">
<path d="M0.897926 18.0794C1.46668 18.6448 2.23606 18.9621 3.03802 18.9621C3.83998 18.9621 4.60936 18.6448 5.17811 18.0794L16.0759 7.33338L26.8219 18.0794C27.3906 18.6448 28.16 18.9621 28.962 18.9621C29.7639 18.9621 30.5333 18.6448 31.1021 18.0794C31.3866 17.7972 31.6124 17.4614 31.7665 17.0915C31.9207 16.7216 32 16.3248 32 15.9241C32 15.5234 31.9207 15.1266 31.7665 14.7567C31.6124 14.3868 31.3866 14.051 31.1021 13.7688L18.2312 0.897928C17.949 0.613405 17.6132 0.387575 17.2433 0.233463C16.8734 0.0793495 16.4766 3.8147e-06 16.0759 3.8147e-06C15.6752 3.8147e-06 15.2784 0.0793495 14.9085 0.233463C14.5386 0.387575 14.2028 0.613405 13.9206 0.897928L0.897926 13.7688C0.613405 14.051 0.387575 14.3868 0.233461 14.7567C0.0793495 15.1266 0 15.5234 0 15.9241C0 16.3248 0.0793495 16.7216 0.233461 17.0915C0.387575 17.4614 0.613405 17.7972 0.897926 18.0794Z" fill="white" fill-opacity="0.94"/>
</svg>
